<svg width="416" height="252" viewBox="0 0 416 252" fill="none" xmlns="http://www.w3.org/2000/svg">
<path fill-rule="evenodd" clip-rule="evenodd" d="M46.308 21.679C46.124 43.259 46.136 43.399 49.083 52.268C52.302 61.958 53.867 72.343 52.257 73.338C51.672 73.699 51.009 71.8 50.644 68.726C49.592 59.84 47.106 51.985 42.204 42.047L37.494 32.5L37.203 40.763C36.953 47.88 37.35 50.306 40.069 58.263C41.805 63.343 43.673 68.35 44.22 69.389C44.766 70.429 45.6 72.679 46.072 74.389C46.868 77.276 46.574 77.104 41.994 72C37.21 66.67 37.057 66.587 37.026 69.306C37.008 70.849 39.019 76.763 41.494 82.447C43.969 88.131 45.994 93.23 45.994 93.779C45.994 94.327 47.139 98.764 48.538 103.638C50.745 111.325 55.366 120.1 58.261 122.102C58.74 122.432 58.382 124.996 57.465 127.799C55.945 132.447 55.628 132.789 53.859 131.697C52.792 131.039 51.677 129.545 51.381 128.378C50.731 125.823 47.956 124.335 42.211 123.463C38.526 122.904 37.429 123.194 34.352 125.541C31.187 127.955 30.839 128.657 31.325 131.65C31.626 133.509 32.799 136.208 33.93 137.646C36.351 140.724 38.388 147.554 37.374 149.194C36.918 149.932 36.368 149.54 35.834 148.097C34.662 144.928 31.582 145.754 31.169 149.346C30.96 151.164 31.808 153.632 33.542 156.252C35.909 159.828 36.17 161.001 35.674 165.807C34.978 172.558 33.461 174.498 32.514 169.849C31.699 165.852 26.309 146.118 24.524 140.597C23.481 137.373 23.518 135.572 24.734 130.239C26.086 124.312 26.068 123.65 24.511 122.142C22.935 120.616 22.707 120.659 21.283 122.75C20.44 123.988 19.355 125 18.872 125C17.396 125 17.896 121.326 19.56 119.945C21.656 118.205 23.994 113.562 23.994 111.139C23.994 108.886 18.648 104 16.183 104C15.272 104 12.188 105.224 9.33001 106.72C5.04101 108.966 4.02501 110.021 3.51001 112.764C2.36501 118.869 4.42201 121.19 12.091 122.445C14.647 122.863 16.022 123.766 16.841 125.564C17.475 126.955 17.994 128.243 17.994 128.424C17.994 128.606 16.028 128.533 13.624 128.262C6.02501 127.405 6.55201 130.071 14.87 134.556C17.827 136.151 20.829 138.365 21.542 139.478C22.255 140.59 24.027 146 25.48 151.5C29.534 166.846 32.977 176.89 36.534 183.75C40.175 190.773 39.666 191.867 35.363 186.266C28.636 177.511 26.96 174.078 27.524 170.207C28.295 164.922 26.842 160.571 24.177 160.18C22.635 159.955 21.994 160.381 21.994 161.63C21.994 162.885 21.683 163.089 20.926 162.332C20.169 161.575 20.295 159.116 21.359 153.882C23.397 143.857 22.845 141.812 17.381 139.157C11.48 136.29 10.672 136.393 6.01701 140.598C2.32301 143.935 0.0140059 148.777 5.85692e-06 153.214C-0.00699414 155.372 6.26201 159.71 11.404 161.103C16.983 162.616 19.829 164.757 22.052 169.113C24.617 174.141 24.518 174.447 21.13 171.943C15.663 167.901 10.061 171.72 15.166 176.009C17.309 177.81 19.965 178.78 27.226 180.414C28.781 180.764 30.585 182.207 31.414 183.764C32.216 185.269 34.647 188.412 36.817 190.75C38.987 193.088 40.491 195 40.158 195C39.826 195 35.94 192.792 31.524 190.093C20.196 183.17 10.647 180.919 7.20601 184.36C5.04401 186.521 6.25401 188.475 11.163 190.753C16.374 193.171 30.238 197.375 38.454 199.029C44.91 200.329 47.97 201.893 52.26 206.086L55.026 208.79L54.789 229.45C54.591 246.726 54.793 250.261 56.023 251.039C56.832 251.551 62.143 251.976 67.826 251.985L78.158 252L87.326 243.277C100.801 230.457 108.116 223.602 111.494 220.631C113.144 219.179 116.069 216.591 117.994 214.879C119.919 213.167 124.757 209.289 128.744 206.262C134.975 201.531 135.994 200.326 135.994 197.687C135.994 195.821 137.661 191.916 140.244 187.733C142.582 183.947 146.194 178.071 148.271 174.675C152.166 168.308 154.519 161.359 157.476 147.5C158.414 143.1 159.414 138.488 159.697 137.25C160.056 135.678 159.753 135 158.69 135C157.114 135 153.983 142.448 148.5 159.242C146.93 164.051 145.507 167.846 145.338 167.677C144.521 166.86 148.343 149.039 150.045 145.729C151.566 142.771 151.741 141.567 150.856 140.151C149.268 137.608 151.155 119.696 153.23 117.621C154.067 116.784 155.052 114.099 155.419 111.655L156.085 107.21L160.926 109.256C163.589 110.381 166.493 111.022 167.381 110.682C170.087 109.643 169.189 106.386 165.398 103.494L161.801 100.751L165.648 98.601C168.411 97.055 169.583 95.683 169.81 93.725C170.082 91.39 169.763 91 167.585 91C166.186 91 163.569 91.898 161.768 92.996C157.374 95.675 156.994 95.56 156.994 91.547C156.994 87.512 155.167 83 153.533 83C151.285 83 149.994 85.474 149.994 89.782V94.163L146.626 92.082C142.985 89.831 138.517 89.345 137.444 91.081C136.659 92.352 141.507 97.711 144.221 98.572C145.879 99.098 145.628 99.674 142.044 103.561C135.589 110.564 137.345 116.092 144.529 111.385C146.994 109.77 146.994 109.771 146.994 113.416C146.994 115.76 147.538 117.272 148.518 117.647C149.591 118.059 149.9 119.158 149.564 121.366C148.074 131.166 147.813 132.105 146.687 131.701C146.031 131.467 144.291 131.881 142.82 132.623C140.253 133.919 140.121 133.853 139.489 130.978C138.88 128.206 135.264 124.931 134.782 126.715C134.665 127.147 134.327 120.075 134.032 111L133.494 94.5H130.904C129.479 94.5 127.558 93.875 126.635 93.112C125.184 91.912 124.668 91.98 122.826 93.612C120.702 95.493 120.697 95.49 121.363 92.75C122.261 89.06 119.616 89.03 115.799 92.687L112.994 95.374L112.979 91.437C112.952 84.452 111.577 83.892 106.994 89C102.283 94.251 101.034 93.566 101.009 85.719C100.999 82.41 100.534 80.761 99.5 80.364C96.549 79.232 99.216 78 104.619 78C110.615 78 113.994 76.739 113.994 74.5C113.994 72.434 110.223 70.726 107.289 71.462C105.362 71.946 106.147 70.892 110.632 66.978C113.856 64.164 118.352 59.541 120.624 56.706C124.744 51.561 124.766 51.55 130.624 51.525C135.819 51.503 136.494 51.27 136.494 49.5C136.494 47.926 135.661 47.394 132.579 47C129.37 46.59 128.925 46.285 130.113 45.307C130.91 44.65 134.363 43.662 137.786 43.111C145.126 41.929 145.994 41.494 145.994 38.998C145.994 37.049 142.765 30.814 140.167 27.75C138.026 25.223 133.387 25.599 129.427 28.619C125.486 31.625 125.304 32.884 127.967 38.75C129.028 41.087 129.512 43 129.043 43C128.574 43 127.7 41.596 127.102 39.881C126.293 37.559 125.541 36.885 124.161 37.246C123 37.55 121.825 36.959 121.019 35.668C119.745 33.629 119.702 33.638 117.311 36.418C114.571 39.604 114.248 39.519 113.424 35.401C112.934 32.949 113.612 31.445 117.414 26.549C123.412 18.824 123.351 14 117.254 14C115.966 14 113.658 13.072 112.124 11.938C108.604 9.336 104.754 10.124 101.983 14.016C100.889 15.552 99.994 17.118 99.994 17.497C99.994 17.875 99.118 19.299 98.046 20.66C96.463 22.673 96.302 23.582 97.184 25.518C98.231 27.815 102.507 30 105.955 30C108.747 30 111.994 33.821 111.994 37.107V40.136L109.001 38.005C102.956 33.7 101.848 39.909 107.739 45.081C110.268 47.302 111.37 49.037 111.135 50.428C110.743 52.741 107.617 59.137 105.005 62.969C104.057 64.361 102.444 66.85 101.421 68.5L99.561 71.5L98.841 66.613C97.943 60.518 96.423 58.737 94.427 61.441C92.514 64.033 92.612 70.132 94.636 74.375C95.572 76.337 95.976 78.606 95.575 79.649C95.018 81.1 94.07 80.03 91.006 74.49C85.618 64.748 85.218 62.675 88.44 61.206C91.969 59.599 94.791 53.665 93.034 51.548C91.129 49.253 89.469 49.646 86.583 53.077L83.994 56.153V52.624C83.994 49.597 84.475 48.865 87.373 47.491C91.972 45.308 95.204 41.712 94.415 39.655C94.066 38.745 93.165 38 92.413 38C91.661 38 90.375 36.705 89.557 35.121C87.943 32.001 86.197 31 82.367 31C79.245 31 74.994 35.182 74.994 38.255C74.994 39.545 74.506 41.088 73.909 41.685C71.902 43.692 73.304 47.282 76.494 48.306C80.723 49.663 81.994 50.891 81.994 53.622C81.994 56.549 81.672 56.561 77.912 53.781C74.967 51.604 72.172 51.938 71.309 54.571C70.718 56.375 75.543 61.095 79.286 62.375C82.526 63.482 83.511 64.585 86.046 69.946C87.721 73.487 88.465 76.017 87.754 75.752C79.22 72.572 79.136 72.562 77.062 74.438C74.216 77.015 75.914 79.642 80.981 80.498C83.188 80.871 84.994 81.294 84.994 81.439C84.994 82.468 82.51 88.748 81.687 89.797C80.292 91.578 79.03 89.528 79.009 85.45C78.98 79.648 74.969 78.123 73.222 83.25C69.167 95.147 67.819 98.563 66.825 99.472C66.013 100.214 65.881 99.987 66.35 98.659C66.708 97.646 67.447 92.021 67.993 86.159C68.538 80.296 69.384 72.8 69.873 69.5C70.361 66.2 70.552 63.276 70.296 63.002C69.567 62.221 67.087 65.947 63.904 72.607C61.246 78.167 60.221 82.075 58.465 93.352C58.135 95.471 57.679 97.019 57.452 96.792C57.225 96.565 56.61 93.347 56.085 89.642C55.001 81.987 55.713 78.998 60.206 72.341C65.58 64.378 69.036 55.301 69.978 46.671C71.42 33.475 71.987 22 71.199 22C69.521 22 63.097 38.577 60.541 49.5C59.769 52.8 58.433 56.85 57.572 58.5C56.054 61.408 56.005 61.193 55.976 51.5C55.929 35.494 54.312 18.823 52.177 12.319C50.425 6.982 47.331 0 46.718 0C46.595 0 46.411 9.756 46.308 21.679ZM52.332 28.51C54.634 50.354 55 59.464 53.489 57.259C51.073 53.736 48.75 44.602 48.624 38.129C48.361 24.708 49.112 9.479 49.936 11.51C50.385 12.615 51.463 20.265 52.332 28.51ZM119.183 20.633C118.63 21.66 117.011 23.591 115.586 24.924L112.994 27.349V22.827C112.994 19.115 113.397 18.118 115.244 17.259C118.265 15.854 120.656 17.901 119.183 20.633ZM110.994 23C110.994 28.658 109.762 29.385 107.52 25.05C105.668 21.468 105.576 19.336 107.244 18.662C110.412 17.384 110.994 18.058 110.994 23ZM105.335 25C107.04 27.887 107.038 28 105.273 28C102.807 28 98.994 25.233 98.994 23.443C98.994 20.729 103.459 21.825 105.335 25ZM130.258 32.598C131.16 33.499 129.919 36.071 128.889 35.435C128.397 35.131 127.994 34.234 127.994 33.441C127.994 31.968 129.185 31.525 130.258 32.598ZM68.626 40.857C67.839 50.302 65.809 57.509 61.839 64.956C59.135 70.028 56.994 73.109 56.994 71.927C56.994 71.439 60.42 58.192 63.958 45C67.782 30.741 69.605 29.123 68.626 40.857ZM137.884 34.557C138.465 35.138 135.94 37.959 133.826 39.09C132.206 39.957 131.994 39.649 131.994 36.427C131.994 32.952 132.121 32.815 134.742 33.473C136.253 33.852 137.667 34.34 137.884 34.557ZM143.297 38.417C143.546 39.574 138.107 41.447 137.183 40.522C136.272 39.611 140.092 36.866 141.777 37.221C142.505 37.374 143.188 37.913 143.297 38.417ZM84.918 38.75C84.876 39.163 84.284 41.044 83.602 42.932L82.362 46.363L80.678 43.959C78.677 41.102 78.533 39.353 80.244 38.662C82.206 37.871 85.002 37.923 84.918 38.75ZM118.994 39.309C118.994 40.029 118.325 41.491 117.508 42.559C116.148 44.335 116.114 44.223 117.106 41.25C118.238 37.857 118.994 37.079 118.994 39.309ZM91.427 40.328C93.112 41.559 92.972 41.816 89.493 43.868C85.039 46.496 84.293 46.106 85.981 42.032C87.356 38.712 88.66 38.304 91.427 40.328ZM109.962 43.372C109.98 43.852 109.319 43.685 108.494 43C107.669 42.315 106.994 41.049 106.994 40.186C106.994 38.931 107.287 39.005 108.462 40.559C109.27 41.626 109.945 42.893 109.962 43.372ZM122.362 45.514C122.967 50.266 122.799 50.773 119.16 55.176C114.976 60.24 106.401 68 104.991 68C104.506 68 105.654 65.655 107.542 62.788C109.43 59.921 111.69 55.421 112.564 52.788C113.439 50.155 114.55 48 115.034 48C116.407 48 120.994 42.684 120.994 41.094C120.994 38.221 121.74 40.632 122.362 45.514ZM125.964 43.75C125.938 46.109 125.788 46.25 124.909 44.742C124.346 43.775 124.162 42.538 124.499 41.992C125.533 40.319 125.995 40.874 125.964 43.75ZM42.524 48.058C44.799 52.548 50.54 74.787 49.653 75.674C49.316 76.012 48.301 73.755 44.177 63.5C40.799 55.1 38.025 43 39.477 43C39.743 43 41.114 45.276 42.524 48.058ZM78.411 44.643C79.208 46.722 78.716 47.214 76.637 46.417C74.639 45.65 74.445 43 76.387 43C77.153 43 78.064 43.739 78.411 44.643ZM91.994 53.906C91.994 55.326 88.112 59.206 87.049 58.849C86.438 58.644 86.837 57.14 88.017 55.201C89.771 52.318 91.994 51.595 91.994 53.906ZM195.865 53.517C194.383 54.317 192.465 56.805 191.469 59.218C189.228 64.649 188.4 78.111 189.954 83.865C192.21 92.218 198.245 95.292 203.472 90.75C206.392 88.213 208.404 80.363 205.922 81.191C205.165 81.443 204.245 83.12 203.877 84.917C203.031 89.055 201.821 90.25 198.48 90.25C193.846 90.25 192.655 87.946 192.183 78.068C191.633 66.568 192.551 60.627 195.387 57.33C197.166 55.261 198.209 54.837 200.256 55.351C202.938 56.024 203.37 56.838 204.452 63.25C205.454 69.187 207.382 67.92 206.657 61.801C205.752 54.164 201.174 50.65 195.865 53.517ZM252.154 53.24C251.356 54.038 250.994 60.271 250.994 73.2C250.994 89.244 251.214 92 252.494 92C253.766 92 254 89.455 254.033 75.25C254.079 55.741 253.432 55.185 264.203 84C266.396 89.868 267.705 92 269.116 92C270.364 92 270.244 53.272 268.994 52.5C268.343 52.097 267.989 57.743 267.979 68.691C267.969 79.792 267.638 84.991 267.005 84C266.156 82.671 264.279 77.952 256.757 58.233C254.5 52.315 253.818 51.576 252.154 53.24ZM281.994 53.5C281.994 54.548 283.05 55 285.494 55H288.994V73.5C288.994 89.278 289.215 92 290.494 92C291.773 92 291.994 89.278 291.994 73.5V55H295.494C297.938 55 298.994 54.548 298.994 53.5C298.994 52.284 297.383 52 290.494 52C283.605 52 281.994 52.284 281.994 53.5ZM311.994 72C311.994 87.69 312.271 92.074 313.244 91.748C315.034 91.148 315.018 52.841 313.228 52.245C312.277 51.928 311.994 56.451 311.994 72ZM331.652 52.744C330.548 54.53 330.768 91.425 331.885 91.797C332.596 92.034 333.035 86.632 333.219 75.364L333.494 58.578L338.646 71.539C341.48 78.668 344.122 85.625 344.519 87C345.355 89.904 346.864 92 348.116 92C348.599 92 348.994 82.973 348.994 71.941C348.994 57.09 348.696 52.066 347.845 52.592C347.01 53.108 346.88 57.793 347.369 69.725C348.035 85.96 347.543 88.501 345.036 81.771C344.366 79.972 343.005 76.475 342.012 74C341.02 71.525 338.955 66.125 337.423 62C334.515 54.165 332.636 51.152 331.652 52.744ZM399.92 55.079C398.339 56.772 396.586 59.809 396.025 61.829C394.668 66.714 394.719 79.022 396.119 84.583C398.818 95.303 409.261 95.785 413.604 85.39C415.635 80.53 415.478 62.821 413.364 58.367C410.079 51.445 404.573 50.098 399.92 55.079ZM226.555 54.25C226.347 54.938 224.959 61.125 223.47 68C221.98 74.875 220.139 82.819 219.378 85.654C217.677 91.99 217.677 92 219.38 92C220.263 92 221.019 90.317 221.461 87.372C222.55 80.113 222.657 80 228.507 80H233.806L234.466 84.798C234.829 87.437 235.522 90.236 236.006 91.019C238.141 94.474 237.814 90.355 234.963 77.899C233.276 70.53 231.42 61.912 230.838 58.75C230.136 54.936 229.301 53 228.356 53C227.572 53 226.762 53.563 226.555 54.25ZM363.994 72.5C363.994 89.167 364.212 92 365.494 92C366.694 92 366.994 90.5 366.994 84.5V77H372.494H377.994V84.5C377.994 90.5 378.294 92 379.494 92C380.776 92 380.994 89.157 380.994 72.417C380.994 57.195 380.716 52.926 379.744 53.248C378.873 53.537 378.408 56.896 378.21 64.331L377.926 75H372.46H366.994V64C366.994 54.889 366.736 53 365.494 53C364.212 53 363.994 55.833 363.994 72.5ZM80.486 58.84C80.791 59.636 80.831 60.496 80.575 60.752C79.736 61.592 73.994 56.901 73.994 55.375C73.994 54.117 74.453 54.158 76.963 55.641C78.595 56.605 80.181 58.045 80.486 58.84ZM411.644 61.869C413.59 68.561 413.053 82.052 410.656 86.686C407.802 92.205 401.391 91.74 398.9 85.834C398.021 83.748 397.499 78.943 397.507 73C397.517 65.125 397.899 62.786 399.738 59.327C403.652 51.964 409.103 53.127 411.644 61.869ZM230.86 68.379C231.825 73.146 232.4 77.261 232.138 77.523C231.331 78.33 225.143 78.05 224.607 77.183C223.754 75.803 227.295 57.901 228.234 58.84C228.713 59.319 229.895 63.612 230.86 68.379ZM96.994 68.618C96.994 70.697 96.588 71.867 95.994 71.5C95.444 71.16 94.994 69.307 94.994 67.382C94.994 65.303 95.4 64.133 95.994 64.5C96.544 64.84 96.994 66.693 96.994 68.618ZM65.888 78.25C65.476 81.138 65.107 86.681 65.067 90.568C64.991 97.925 62.759 107.409 60.822 108.607C58.949 109.764 60.759 88.509 63.173 81C66.35 71.115 66.997 70.459 65.888 78.25ZM110.494 75C110.154 75.55 108.215 75.993 106.185 75.985C103.434 75.973 102.876 75.723 103.994 75C105.99 73.71 111.291 73.71 110.494 75ZM48.078 84.337C49.203 86.448 50.745 91.423 51.505 95.394C52.986 103.132 55.355 110.807 57.634 115.25C58.41 116.762 58.622 118 58.105 118C56.525 118 52.064 109.067 50.419 102.607C47.796 92.308 45.146 84.166 43.639 81.777C42.849 80.525 41.893 78.375 41.516 77C40.849 74.572 40.904 74.587 43.431 77.5C44.862 79.15 46.953 82.227 48.078 84.337ZM84.412 76.607C85.282 76.941 85.994 77.616 85.994 78.107C85.994 79.53 81.563 79.141 79.435 77.532C77.571 76.122 77.6 76.062 80.162 76.032C81.63 76.014 83.542 76.273 84.412 76.607ZM92.429 82.928C94.439 85.149 94.015 87.228 90.613 91.839L88.252 95.039L87.623 91.895C87.277 90.165 86.994 87.006 86.994 84.875C86.994 81.775 87.363 81 88.839 81C89.854 81 91.469 81.868 92.429 82.928ZM154.994 92.028C154.994 95.819 154.676 96.815 153.598 96.401C151.777 95.703 150.953 91.237 152.093 88.24C153.477 84.598 154.994 86.578 154.994 92.028ZM98.994 94.109C98.994 97.855 98.045 100 96.387 100C95.37 100 94.994 98.559 94.994 94.667C94.994 91.733 95.319 89.008 95.717 88.611C96.846 87.482 98.994 91.086 98.994 94.109ZM77.994 93.937C77.994 97.871 76.877 101.155 72.017 111.5C70.467 114.8 68.39 119.263 67.402 121.418C66.415 123.574 65.427 124.799 65.208 124.142C64.844 123.051 67.25 115.493 72.096 102.5C73.121 99.75 74.439 95.574 75.024 93.22C76.287 88.137 77.994 88.549 77.994 93.937ZM110.994 93.345C110.994 96.483 110.413 98.216 108.904 99.582C106.852 101.438 106.787 101.437 105.404 99.546C104.628 98.485 103.994 97.23 103.994 96.755C103.994 95.588 109.303 89 110.244 89C110.656 89 110.994 90.955 110.994 93.345ZM83.829 101.793C82.687 103.826 80.548 107.292 79.075 109.495C77.602 111.698 74.869 116.075 73.001 119.222C71.133 122.369 69.425 124.764 69.205 124.544C68.985 124.324 72.324 116.357 76.625 106.839L84.445 89.535L85.175 93.815C85.758 97.227 85.485 98.846 83.829 101.793ZM148.994 97.184C148.994 98.454 147.431 98.157 144.081 96.25C142.39 95.287 141.004 93.909 141 93.186C140.996 92.258 142.168 92.532 144.994 94.12C147.194 95.357 148.994 96.735 148.994 97.184ZM86.87 111.5C83.132 115.9 77.731 121.75 74.867 124.5L69.661 129.5L71.967 125.5C73.236 123.3 75.336 119.813 76.634 117.75C77.932 115.688 80.047 112.313 81.334 110.25C82.621 108.188 85.659 103.464 88.084 99.754L92.494 93.008L93.08 98.254L93.667 103.5L86.87 111.5ZM167.994 93.885C167.994 95.28 163.303 97.992 159.74 98.658C155.674 99.418 156.86 97.885 162.524 95.06C167 92.827 167.994 92.614 167.994 93.885ZM118.994 94.809C118.994 96.168 116.686 98.749 112.606 101.95C106.41 106.811 106.08 105.489 111.994 99.5C117.182 94.247 118.994 93.033 118.994 94.809ZM126.994 95.977C126.994 96.514 125.756 97.731 124.244 98.682C122.732 99.632 119.469 102.051 116.994 104.058C111.974 108.129 107.959 110.478 108.061 109.285C108.162 108.105 124.303 95.114 125.744 95.053C126.432 95.024 126.994 95.44 126.994 95.977ZM103.524 101.094C104.003 102.605 103.414 103.996 101.404 106.094C99.873 107.692 98.285 109 97.876 109C96.261 109 96.514 104.347 98.27 101.75C100.486 98.473 102.608 98.208 103.524 101.094ZM153.994 100C153.994 100.55 153.571 101 153.053 101C152.535 101 151.834 100.55 151.494 100C151.154 99.45 151.578 99 152.435 99C153.292 99 153.994 99.45 153.994 100ZM55.656 103.25C55.379 103.938 55.152 103.375 55.152 102C55.152 100.625 55.379 100.063 55.656 100.75C55.934 101.438 55.934 102.563 55.656 103.25ZM131.347 126.75C131.7 141.463 132.271 163.85 132.614 176.5L133.239 199.5L120.367 210.152C113.287 216.01 100.969 227.11 92.994 234.818C85.019 242.526 78.139 248.493 77.705 248.077C76.61 247.029 76.77 143.72 77.871 140.823C78.362 139.533 83.364 135.107 88.987 130.988C94.609 126.87 101.802 121.475 104.97 119C108.138 116.525 113.741 112.25 117.422 109.5C121.102 106.75 125.277 103.487 126.7 102.25C128.122 101.013 129.605 100 129.995 100C130.385 100 130.993 112.037 131.347 126.75ZM148.994 102.277C148.994 104.156 143.361 110 141.55 110C139.342 110 139.548 109.499 143.61 105.003C147.33 100.885 148.994 100.043 148.994 102.277ZM161.282 103.6C163.128 104.481 165.209 106.115 165.906 107.231C167.088 109.123 166.99 109.216 164.484 108.587C161.512 107.841 155.994 104.088 155.994 102.812C155.994 101.591 157.558 101.825 161.282 103.6ZM153.6 106.567C154.449 109.95 152.807 115.5 150.957 115.5C149.939 115.5 149.54 114.499 149.646 112.209C149.996 104.623 152.291 101.349 153.6 106.567ZM13.409 109.596C5.40201 113.854 2.91301 112.23 10.758 107.866C14.013 106.056 15.875 105.538 16.712 106.212C17.599 106.925 16.699 107.847 13.409 109.596ZM102.458 109.823C100.828 111.324 95.183 115.777 89.915 119.718C78.425 128.313 77.026 129.775 79.058 131.061C80.289 131.84 80.28 131.969 78.994 131.969C78.169 131.969 76.819 131.532 75.994 130.998C74.246 129.867 76.241 127.978 86.994 120.582C90.569 118.123 95.969 113.876 98.994 111.145C102.019 108.414 104.703 106.385 104.958 106.637C105.213 106.888 104.088 108.322 102.458 109.823ZM94.994 109.94C94.994 111.674 92.046 114.327 85.557 118.433L82.62 120.291L84.768 117.561C89.531 111.505 93.535 107.348 94.244 107.723C94.656 107.94 94.994 108.938 94.994 109.94ZM21.994 111.845C21.994 113.487 21.092 115.496 19.861 116.595C17.737 118.492 17.731 118.49 18.56 116C19.017 114.625 19.349 112.488 19.298 111.25C19.245 109.948 19.793 109 20.6 109C21.465 109 21.994 110.079 21.994 111.845ZM17.527 113.75C16.549 119.077 15.454 119.781 12.485 116.992L9.95001 114.61L12.722 112.341C16.961 108.871 18.349 109.278 17.527 113.75ZM65.677 113.188C65.358 113.985 65.121 113.748 65.073 112.583C65.03 111.529 65.266 110.939 65.598 111.271C65.93 111.603 65.966 112.466 65.677 113.188ZM104.092 113.761C97.616 118.975 83.49 128.96 82.562 128.98C82.05 128.991 83.564 127.537 85.928 125.75C88.292 123.963 93.436 119.942 97.36 116.816C101.284 113.69 105.169 111.107 105.994 111.077C106.824 111.047 105.975 112.245 104.092 113.761ZM191.721 112.664C190.097 113.114 189.971 114.605 190.221 130.328L190.494 147.5L193.83 147.343C204.91 146.822 211.442 123.348 202.755 115.266C200.432 113.104 194.865 111.791 191.721 112.664ZM223.723 112.841C222.748 113.226 220.948 115.107 219.723 117.021C217.774 120.063 217.494 121.842 217.494 131.177C217.494 140.464 217.768 142.221 219.596 144.677C222.568 148.669 226.176 149.766 229.396 147.656C233.975 144.656 235.398 140.469 235.398 130C235.398 119.338 233.729 114.61 229.381 112.957C226.534 111.875 226.185 111.868 223.723 112.841ZM250.296 113.501C245.428 116.911 246.584 124.111 252.974 130.179C257.7 134.668 258.994 136.964 258.994 140.863C258.994 148.374 250.621 149.3 249.118 141.954C248.24 137.66 245.994 136.809 245.994 140.771C245.994 144.557 250.042 149 253.492 149C257.341 149 260.994 144.851 260.994 140.48C260.994 135.905 259.818 133.739 254.943 129.335C247.782 122.865 247.647 114.064 254.709 114.015C257.157 113.998 258.986 116.622 259.009 120.184C259.021 122.025 259.218 122.194 259.968 121.008C260.486 120.188 260.651 118.388 260.332 117.008C259.228 112.216 254.493 110.562 250.296 113.501ZM9.82001 117.055C12.219 120.092 11.695 120.563 7.24401 119.37C5.11501 118.799 4.21101 116.116 5.66101 114.667C6.73901 113.588 7.36501 113.947 9.82001 117.055ZM199.049 115.03C205.788 118.636 205.662 134.752 198.836 142.527C194.471 147.499 193.387 147.031 192.636 139.853C191.824 132.08 191.803 117.662 192.601 115.582C193.295 113.773 196.231 113.521 199.049 115.03ZM231.342 118.282C235.585 126.968 233.875 143.73 228.496 146.181C221.275 149.471 216.444 134.792 220.41 121.612C222.242 115.526 223.729 113.83 226.908 114.199C228.764 114.415 230.015 115.567 231.342 118.282ZM23.144 128.788C22.228 131.291 22.148 131.154 22.103 127C22.065 123.418 22.267 122.865 23.095 124.288C23.796 125.491 23.812 126.961 23.144 128.788ZM48.205 127.113C51.361 128.802 49.792 129.041 43.185 127.877C39.537 127.234 37.26 126.378 37.626 125.787C38.332 124.644 45.202 125.506 48.205 127.113ZM37.624 130.25C37.293 131.488 37.015 133.764 37.008 135.309C36.991 138.651 35.608 138.088 33.415 133.846C31.438 130.024 32.188 128 35.579 128C37.837 128 38.138 128.331 37.624 130.25ZM16.496 131.25C18.406 132.488 19.975 133.819 19.982 134.209C20.001 135.33 11.658 131.492 11.22 130.179C10.613 128.357 12.676 128.776 16.496 131.25ZM45.801 130.531C46.331 130.962 39.65 140 38.801 140C37.722 140 37.783 138.725 39.11 133.453C40.144 129.346 40.42 129.066 42.86 129.651C44.309 129.998 45.632 130.394 45.801 130.531ZM136.701 135.238C136.462 136.482 136.257 135.7 136.246 133.5C136.235 131.3 136.431 130.282 136.681 131.238C136.931 132.194 136.94 133.994 136.701 135.238ZM51.994 133.947C51.994 135.283 50.423 136.684 46.994 138.406C42.16 140.834 40.566 140.571 43.336 137.801C44.074 137.063 45.215 135.456 45.871 134.229C47.424 131.328 51.994 131.118 51.994 133.947ZM63.994 133C63.994 133.55 63.319 134 62.494 134C61.669 134 60.994 133.55 60.994 133C60.994 132.45 61.669 132 62.494 132C63.319 132 63.994 132.45 63.994 133ZM75.519 134.04C75.94 134.722 75.186 134.846 73.328 134.399C69.496 133.479 69.134 133 72.268 133C73.703 133 75.165 133.468 75.519 134.04ZM145.056 136.426C144.436 137.173 143.051 138.013 141.979 138.294C140.339 138.722 140.187 138.507 141.024 136.945C142.288 134.582 145.365 132.761 145.839 134.096C146.028 134.63 145.676 135.678 145.056 136.426ZM55.76 152.5C55.761 159.1 55.543 163.6 55.275 162.5C54.534 159.461 51.939 157 49.475 157C48.012 157 46.292 158.406 44.38 161.165C41.71 165.02 41.504 165.972 41.627 173.915C41.707 179.059 42.437 184.442 43.449 187.345C44.378 190.009 44.88 192.447 44.566 192.761C43.852 193.475 44.009 193.69 40.001 186.5C36.4 180.037 35.919 176.263 37.357 165.722C38.043 160.691 38.717 159.381 42.569 155.582C47.242 150.976 48.422 147 45.116 147C44.083 147 42.512 148.012 41.624 149.25C40.038 151.462 40.015 151.434 40.252 147.601C40.482 143.894 40.814 143.533 46.994 140.273C50.569 138.387 53.699 136.317 53.949 135.672C54.915 133.183 55.757 141.016 55.76 152.5ZM72.429 136.975C74.925 137.924 74.994 138.198 74.994 147.113V156.276L67.303 155.579C63.073 155.196 59.248 154.657 58.803 154.382C58.358 154.107 57.994 150.115 57.994 145.511C57.994 137.624 58.124 137.114 60.244 136.706C64.51 135.884 69.871 136.003 72.429 136.975ZM14.744 140.75C15.013 141.558 14.137 142 12.267 142C10.376 142 8.26801 143.081 6.18401 145.119C4.42901 146.834 2.99401 147.996 2.99401 147.7C2.99401 145.801 4.72601 143.574 7.87001 141.431C11.646 138.857 14.035 138.62 14.744 140.75ZM149.494 142C149.875 142.617 148.27 142.973 145.303 142.93C141.696 142.877 140.994 142.645 142.494 142C145.273 140.806 148.756 140.806 149.494 142ZM20.784 145.5C20.943 147.15 20.445 150.3 19.676 152.5L18.279 156.5L17.137 151.201C15.417 143.224 15.591 141.804 18.244 142.18C19.924 142.419 20.567 143.26 20.784 145.5ZM14.544 148.75C15.428 151.912 16.371 155.287 16.64 156.25C17.372 158.872 15.485 158.37 11.52 154.889C6.81301 150.756 6.05001 147.602 9.13501 145.032C10.433 143.951 11.819 143.052 12.216 143.033C12.613 143.015 13.661 145.588 14.544 148.75ZM138.817 150.123C138.639 151.98 138.044 153.401 137.494 153.281C136.285 153.016 135.608 148.448 136.452 146.248C137.472 143.591 139.175 146.381 138.817 150.123ZM145.994 148.529C145.994 151.251 143.475 164.231 142.119 168.5C141.404 170.752 141.144 168.229 141.08 158.389L140.994 145.277L143.494 145.755C145.296 146.1 145.994 146.874 145.994 148.529ZM34.833 150.547C36.227 153.606 36.308 155 35.092 155C34.376 155 31.994 149.886 31.994 148.351C31.994 146.998 33.881 148.457 34.833 150.547ZM154.459 152.208C153.575 157.442 149.43 168.59 147.324 171.398C145.842 173.375 145.793 173.381 146.502 171.5C146.917 170.4 148.885 164.667 150.875 158.76C152.866 152.853 154.646 148.016 154.832 148.01C155.018 148.005 154.85 149.893 154.459 152.208ZM8.74401 154.434C11.082 156.855 12.994 159.076 12.994 159.369C12.994 160.238 4.93101 156.366 3.25901 154.694C1.78101 153.216 2.09401 149.982 3.71301 150.017C4.14201 150.026 6.40601 152.014 8.74401 154.434ZM43.291 152.407C42.303 153.732 41.339 154.391 41.149 153.874C40.735 152.74 42.867 150 44.163 150C44.671 150 44.279 151.083 43.291 152.407ZM139.404 158.497C139.722 159.766 139.781 162.086 139.533 163.652C139.286 165.219 138.504 171 137.795 176.5L136.507 186.5L135.881 179C135.537 174.875 135.197 167.83 135.125 163.344C135.003 155.768 135.13 155.223 136.909 155.688C137.963 155.964 139.085 157.227 139.404 158.497ZM53.331 163.933C54.006 167.308 49.825 185.606 47.985 187.331C46.992 188.262 46.858 186.83 47.33 180.31C48.242 167.698 50.085 158.831 51.543 160.041C52.208 160.593 53.013 162.345 53.331 163.933ZM47.063 166.586C46.475 169.766 45.994 174.535 45.994 177.184C45.994 179.833 45.592 182 45.101 182C42.235 182 42.21 169.458 45.064 163.863C46.202 161.632 47.358 160.031 47.633 160.305C47.907 160.58 47.651 163.406 47.063 166.586ZM25.804 166.327C26.144 170.343 24.591 171.356 23.624 167.75C22.644 164.092 22.902 161.803 24.244 162.244C24.932 162.47 25.634 164.307 25.804 166.327ZM71.783 169H75.293L74.573 192.237C74.177 205.018 73.679 215.649 73.466 215.861C73.254 216.074 69.573 215.854 65.287 215.374L57.494 214.5L57.86 192C58.061 179.625 58.458 169.109 58.742 168.632C59.026 168.155 61.286 168.042 63.765 168.382C66.245 168.722 69.853 169 71.783 169ZM327.956 168.752C323.83 169.864 321.907 171.793 319.358 177.376C316.861 182.844 316.571 184.571 316.65 193.5C316.792 209.436 320.597 217 328.472 217C333.792 217 338.41 212.56 339.914 206C341.288 200.003 341.269 183.979 339.881 178.466C338.197 171.78 332.86 167.432 327.956 168.752ZM361.298 169.956C359.023 171.343 357.911 172.926 357.437 175.452C356.177 182.167 357.618 185.546 364.911 192.985C372.001 200.217 373.466 203.392 372.33 209.068C370.651 217.466 358.994 216.084 358.994 207.488C358.994 205.634 358.567 203.854 358.044 203.531C356.587 202.63 354.797 206.796 355.57 209.288C358.912 220.056 370.615 220.796 374.552 210.488C377.147 203.692 375.558 199.597 366.939 190.875C360.299 184.156 359.994 183.637 359.994 179.078C359.994 173.647 362.044 171 366.251 171C369.822 171 371.994 173.486 371.994 177.571C371.994 179.457 372.458 181 373.025 181C376.619 181 374.444 170.982 370.456 169.165C366.894 167.542 364.988 167.706 361.298 169.956ZM55.51 187.457C55.108 197.106 54.371 205 53.872 205C52.147 205 49.001 198.487 48.998 194.91C48.996 192.935 50.339 187.31 51.982 182.41C53.625 177.509 54.975 172.412 54.982 171.083C54.989 169.754 55.275 168.947 55.617 169.29C55.96 169.633 55.912 177.808 55.51 187.457ZM191.836 169.697C191.648 170.139 191.623 180.981 191.78 193.791L192.066 217.083L199.78 216.791C209.364 216.429 209.95 214.607 200.612 214.201L193.73 213.903L194.112 191.793C194.391 175.633 194.182 169.577 193.336 169.289C192.699 169.072 192.024 169.256 191.836 169.697ZM224.226 192.75C224.395 207.738 224.863 216.5 225.494 216.5C226.125 216.5 226.593 207.738 226.762 192.75C226.997 171.94 226.84 169 225.494 169C224.148 169 223.991 171.94 224.226 192.75ZM243.006 169.75C243.012 170.162 244.153 175 245.541 180.5C246.928 186 248.753 194.1 249.595 198.5C251.915 210.627 253.958 217 255.525 217C257.093 217 257.86 214.507 261.523 197.5C262.945 190.9 265.011 181.966 266.115 177.647C268.159 169.646 268.104 168.36 265.753 169.262C264.485 169.749 263.164 175.37 258.961 198.175C256.32 212.502 255.68 212.907 253.135 201.86C251.95 196.712 250.294 188.9 249.457 184.5C247.135 172.301 246.07 169 244.455 169C243.652 169 242.999 169.338 243.006 169.75ZM284.225 169.836C282.623 170.853 282.886 215.994 284.494 216.016C285.044 216.024 285.719 213.04 285.994 209.386C286.449 203.335 286.784 202.519 289.742 200.244L292.99 197.747L294.5 201.359C295.33 203.346 296.487 207.199 297.07 209.921C298.229 215.322 300.546 218.331 301.544 215.73C301.86 214.907 301.017 211.594 299.671 208.367C295.503 198.375 295.415 196.582 298.831 191.221C300.486 188.625 302.136 184.884 302.498 182.909C303.466 177.632 301.542 171.571 298.452 170.163C295.548 168.84 286.135 168.624 284.225 169.836ZM297.921 173.635C302.203 179.078 299.202 189.005 291.124 196.119L286.494 200.197L286.214 186.899C286.059 179.585 286.158 173.016 286.432 172.3C286.739 171.502 288.653 171 291.39 171C295.016 171 296.236 171.492 297.921 173.635ZM334.332 173.99C341.717 182.766 339.719 211.525 331.584 213.567C327.631 214.559 324.809 213.653 322.599 210.683C320.821 208.293 320.449 206.124 320.139 196.363C319.729 183.455 320.866 177.696 324.624 173.643C327.868 170.144 331.196 170.263 334.332 173.99ZM21.494 174.415C23.144 175.738 24.2 177.117 23.841 177.48C22.994 178.335 14.994 174.265 14.994 172.98C14.994 171.206 18.44 171.967 21.494 174.415ZM24.565 188.108C28.11 189.818 31.258 191.618 31.561 192.108C32.275 193.264 30.678 193.266 29.444 192.111C28.922 191.622 25.977 190.505 22.901 189.628C19.824 188.752 15.774 187.37 13.901 186.557L10.494 185.078L14.307 185.039C16.592 185.016 20.702 186.245 24.565 188.108ZM17.35 189.589C20.729 190.464 23.944 191.548 24.494 191.999C25.044 192.451 27.069 193.299 28.994 193.885C32.402 194.921 32.375 194.934 27.994 194.364C25.519 194.041 21.606 192.928 19.299 191.889C16.992 190.85 14.517 189.993 13.799 189.985C12.357 189.968 8.98001 188.04 10.35 188.015C10.82 188.007 13.97 188.715 17.35 189.589ZM74.994 240V250H66.123H57.252L56.55 241.023C56.163 236.086 56.132 231.586 56.48 231.023C56.834 230.449 61.037 230 66.053 230H74.994V240Z" fill="black"/>
</svg>
